<svg width="287" height="30" viewBox="0 0 287 30" fill="none" xmlns="http://www.w3.org/2000/svg">
<path d="M19.0488 29.5078C16.6452 29.5078 14.2669 29.3555 11.9141 29.0508C9.57812 28.7461 7.50456 28.3737 5.69336 27.9336C3.89909 27.4935 2.5957 27.0872 1.7832 26.7148C1.32617 26.4948 1.09766 26.1647 1.09766 25.7246C1.09766 25.2337 1.31771 24.9883 1.75781 24.9883C1.8763 24.9883 1.99479 25.0137 2.11328 25.0645C2.99349 25.4199 4.35612 25.8177 6.20117 26.2578C8.04622 26.681 10.1283 27.0534 12.4473 27.375C14.7832 27.6797 17.1107 27.832 19.4297 27.832C21.681 27.832 23.763 27.6289 25.6758 27.2227C27.6055 26.7995 29.1543 26.097 30.3223 25.1152C31.4902 24.1335 32.0742 22.7962 32.0742 21.1035C32.0742 19.7663 31.6341 18.7253 30.7539 17.9805C29.8737 17.2188 28.6888 16.6517 27.1992 16.2793C25.7096 15.9069 24.0339 15.6445 22.1719 15.4922C20.3268 15.3398 18.4141 15.2298 16.4336 15.1621C14.4531 15.0775 12.5319 14.9421 10.6699 14.7559C8.82487 14.5697 7.15755 14.2565 5.66797 13.8164C4.17839 13.3763 2.99349 12.7161 2.11328 11.8359C1.23307 10.9557 0.792969 9.7793 0.792969 8.30664C0.792969 6.68164 1.22461 5.3444 2.08789 4.29492C2.9681 3.22852 4.14453 2.39909 5.61719 1.80664C7.08984 1.19727 8.74023 0.774089 10.5684 0.537109C12.3965 0.30013 14.2669 0.181641 16.1797 0.181641C18.2786 0.181641 20.3184 0.308594 22.2988 0.5625C24.2793 0.799479 26.0566 1.11263 27.6309 1.50195C29.2051 1.89128 30.4238 2.28906 31.2871 2.69531C31.5579 2.8138 31.6934 3.04232 31.6934 3.38086C31.6934 3.61784 31.6087 3.83789 31.4395 4.04102C31.2871 4.24414 31.0671 4.3457 30.7793 4.3457C30.61 4.3457 30.4661 4.31185 30.3477 4.24414C28.5703 3.49935 26.4206 2.91536 23.8984 2.49219C21.3763 2.06901 18.8372 1.85742 16.2812 1.85742C13.9453 1.85742 11.7617 2.04362 9.73047 2.41602C7.69922 2.78841 6.05729 3.43164 4.80469 4.3457C3.56901 5.25977 2.95117 6.5293 2.95117 8.1543C2.95117 9.32227 3.39128 10.2279 4.27148 10.8711C5.15169 11.5143 6.33659 11.9967 7.82617 12.3184C9.31576 12.623 10.9831 12.8431 12.8281 12.9785C14.6901 13.097 16.6113 13.2155 18.5918 13.334C20.5723 13.4355 22.485 13.6048 24.3301 13.8418C26.1921 14.0788 27.8678 14.4596 29.3574 14.9844C30.847 15.5091 32.0319 16.2624 32.9121 17.2441C33.7923 18.2259 34.2324 19.5124 34.2324 21.1035C34.2324 22.7285 33.8092 24.0827 32.9629 25.166C32.1335 26.2493 30.9993 27.1126 29.5605 27.7559C28.1217 28.3822 26.4967 28.8307 24.6855 29.1016C22.8743 29.3724 20.9954 29.5078 19.0488 29.5078ZM39.4375 29.2539C38.9466 29.2539 38.6758 29.0339 38.625 28.5938C38.5742 28.1367 38.6673 27.6966 38.9043 27.2734L52.8945 2.00977C53.1654 1.51888 53.377 1.18034 53.5293 0.994141C53.6816 0.807943 53.9102 0.714844 54.2148 0.714844C54.4518 0.714844 54.6634 0.807943 54.8496 0.994141C55.0358 1.16341 55.2643 1.50195 55.5352 2.00977L69.5508 27.2988C69.737 27.6204 69.8301 27.9505 69.8301 28.2891C69.8301 28.9323 69.5423 29.2539 68.9668 29.2539C68.7467 29.2539 68.5182 29.1693 68.2812 29C68.0443 28.8477 67.8073 28.5599 67.5703 28.1367L63.2539 20.3164H45.1758L40.8086 28.2383C40.4531 28.9154 39.9961 29.2539 39.4375 29.2539ZM45.9121 18.8184H62.5176L54.2148 3.66016L45.9121 18.8184ZM76.4824 29C75.9577 29 75.653 28.9577 75.5684 28.873C75.4837 28.7715 75.4414 28.5007 75.4414 28.0605V2.36523C75.4414 1.92513 75.5176 1.54427 75.6699 1.22266C75.8223 0.884115 76.1439 0.714844 76.6348 0.714844C77.041 0.714844 77.3034 0.892578 77.4219 1.24805C77.5404 1.58659 77.5996 1.95898 77.5996 2.36523V27.3242H99.4102C99.7487 27.3242 100.003 27.4173 100.172 27.6035C100.358 27.7728 100.451 27.959 100.451 28.1621C100.451 28.3822 100.358 28.5768 100.172 28.7461C100.003 28.9154 99.7487 29 99.4102 29H76.4824ZM105.225 29C104.903 29 104.708 28.9492 104.641 28.8477C104.59 28.7461 104.564 28.5007 104.564 28.1113V1.9082C104.564 1.41732 104.598 1.0957 104.666 0.943359C104.734 0.791016 105.013 0.714844 105.504 0.714844H128.686C129.176 0.714844 129.608 0.740234 129.98 0.791016C130.37 0.841797 130.564 1.11263 130.564 1.60352C130.564 2.02669 130.37 2.26367 129.98 2.31445C129.608 2.36523 129.176 2.39062 128.686 2.39062H106.723V13.5117H128.559C128.931 13.5117 129.244 13.5625 129.498 13.6641C129.752 13.7656 129.879 13.9857 129.879 14.3242C129.879 14.6966 129.769 14.9421 129.549 15.0605C129.346 15.179 129.075 15.2383 128.736 15.2383H106.723V27.3242H128.736C129.227 27.3242 129.659 27.3496 130.031 27.4004C130.421 27.4512 130.615 27.6882 130.615 28.1113C130.615 28.6022 130.454 28.873 130.133 28.9238C129.828 28.9577 129.43 28.9831 128.939 29H105.225ZM154.584 29.5078C152.18 29.5078 149.802 29.3555 147.449 29.0508C145.113 28.7461 143.04 28.3737 141.229 27.9336C139.434 27.4935 138.131 27.0872 137.318 26.7148C136.861 26.4948 136.633 26.1647 136.633 25.7246C136.633 25.2337 136.853 24.9883 137.293 24.9883C137.411 24.9883 137.53 25.0137 137.648 25.0645C138.529 25.4199 139.891 25.8177 141.736 26.2578C143.581 26.681 145.663 27.0534 147.982 27.375C150.318 27.6797 152.646 27.832 154.965 27.832C157.216 27.832 159.298 27.6289 161.211 27.2227C163.141 26.7995 164.689 26.097 165.857 25.1152C167.025 24.1335 167.609 22.7962 167.609 21.1035C167.609 19.7663 167.169 18.7253 166.289 17.9805C165.409 17.2188 164.224 16.6517 162.734 16.2793C161.245 15.9069 159.569 15.6445 157.707 15.4922C155.862 15.3398 153.949 15.2298 151.969 15.1621C149.988 15.0775 148.067 14.9421 146.205 14.7559C144.36 14.5697 142.693 14.2565 141.203 13.8164C139.714 13.3763 138.529 12.7161 137.648 11.8359C136.768 10.9557 136.328 9.7793 136.328 8.30664C136.328 6.68164 136.76 5.3444 137.623 4.29492C138.503 3.22852 139.68 2.39909 141.152 1.80664C142.625 1.19727 144.275 0.774089 146.104 0.537109C147.932 0.30013 149.802 0.181641 151.715 0.181641C153.814 0.181641 155.854 0.308594 157.834 0.5625C159.814 0.799479 161.592 1.11263 163.166 1.50195C164.74 1.89128 165.959 2.28906 166.822 2.69531C167.093 2.8138 167.229 3.04232 167.229 3.38086C167.229 3.61784 167.144 3.83789 166.975 4.04102C166.822 4.24414 166.602 4.3457 166.314 4.3457C166.145 4.3457 166.001 4.31185 165.883 4.24414C164.105 3.49935 161.956 2.91536 159.434 2.49219C156.911 2.06901 154.372 1.85742 151.816 1.85742C149.48 1.85742 147.297 2.04362 145.266 2.41602C143.234 2.78841 141.592 3.43164 140.34 4.3457C139.104 5.25977 138.486 6.5293 138.486 8.1543C138.486 9.32227 138.926 10.2279 139.807 10.8711C140.687 11.5143 141.872 11.9967 143.361 12.3184C144.851 12.623 146.518 12.8431 148.363 12.9785C150.225 13.097 152.146 13.2155 154.127 13.334C156.107 13.4355 158.02 13.6048 159.865 13.8418C161.727 14.0788 163.403 14.4596 164.893 14.9844C166.382 15.5091 167.567 16.2624 168.447 17.2441C169.327 18.2259 169.768 19.5124 169.768 21.1035C169.768 22.7285 169.344 24.0827 168.498 25.166C167.669 26.2493 166.535 27.1126 165.096 27.7559C163.657 28.3822 162.032 28.8307 160.221 29.1016C158.41 29.3724 156.531 29.5078 154.584 29.5078ZM177.766 29C177.275 29 176.97 28.8307 176.852 28.4922C176.733 28.1367 176.674 27.7135 176.674 27.2227V2.08594C176.674 1.69661 176.775 1.375 176.979 1.12109C177.199 0.85026 177.469 0.714844 177.791 0.714844C178.333 0.714844 178.849 1.07878 179.34 1.80664L195.082 25.4707L210.824 1.80664C211.298 1.07878 211.814 0.714844 212.373 0.714844C212.695 0.714844 212.957 0.85026 213.16 1.12109C213.38 1.375 213.49 1.69661 213.49 2.08594V27.2227C213.49 27.7135 213.431 28.1367 213.312 28.4922C213.194 28.8307 212.889 29 212.398 29C211.975 29 211.688 28.8307 211.535 28.4922C211.4 28.1367 211.332 27.7135 211.332 27.2227V4.67578L196.326 26.8164C195.92 27.3919 195.505 27.6797 195.082 27.6797C194.625 27.6797 194.21 27.3919 193.838 26.8164L178.832 4.67578V27.2227C178.832 27.7135 178.756 28.1367 178.604 28.4922C178.468 28.8307 178.189 29 177.766 29ZM219.863 29.2539C219.372 29.2539 219.102 29.0339 219.051 28.5938C219 28.1367 219.093 27.6966 219.33 27.2734L233.32 2.00977C233.591 1.51888 233.803 1.18034 233.955 0.994141C234.107 0.807943 234.336 0.714844 234.641 0.714844C234.878 0.714844 235.089 0.807943 235.275 0.994141C235.462 1.16341 235.69 1.50195 235.961 2.00977L249.977 27.2988C250.163 27.6204 250.256 27.9505 250.256 28.2891C250.256 28.9323 249.968 29.2539 249.393 29.2539C249.173 29.2539 248.944 29.1693 248.707 29C248.47 28.8477 248.233 28.5599 247.996 28.1367L243.68 20.3164H225.602L221.234 28.2383C220.879 28.9154 220.422 29.2539 219.863 29.2539ZM226.338 18.8184H242.943L234.641 3.66016L226.338 18.8184ZM256.984 29C256.493 29 256.18 28.8307 256.045 28.4922C255.926 28.1367 255.867 27.7135 255.867 27.2227V2.36523C255.867 1.31576 256.214 0.791016 256.908 0.791016C257.331 0.791016 257.822 1.04492 258.381 1.55273L284.355 25.75V2.64453C284.355 2.15365 284.406 1.71354 284.508 1.32422C284.626 0.917969 284.939 0.714844 285.447 0.714844C285.887 0.714844 286.175 0.909505 286.311 1.29883C286.446 1.67122 286.514 2.11979 286.514 2.64453V27.375C286.514 28.4583 286.226 29 285.65 29C285.261 29 284.779 28.7376 284.203 28.2129L258.025 3.96484V27.2227C258.025 27.7135 257.949 28.1367 257.797 28.4922C257.661 28.8307 257.391 29 256.984 29Z" fill="black"/>
</svg>
